# AST/ASF file generated using VICON BodyLanguage
# -----------------------------------------------
:version 1.10
:name VICON
:units
  mass 1.0
  length 0.45
  angle deg
:documentation
   .ast/.asf automatically generated from VICON data using
   VICON BodyBuilder and BodyLanguage model FoxedUp or BRILLIANT.MOD
:root
   order TX TY TZ RX RY RZ
   axis XYZ
   position 0 0 0  
   orientation 0 0 0 
:bonedata
  begin
     id 1 
     name lhipjoint
     direction 0.54267 -0.795011 0.271047 
     length 2.39899 
     axis 0 0 0  XYZ
  end
  begin
     id 2 
     name lfemur
     direction 0.34202 -0.939693 0  
     length 7.49701  
     axis 0 0 20  XYZ
    dof rx ry rz
    limits (-160.0 20.0)
           (-70.0 70.0)
           (-60.0 70.0)
  end
  begin
     id 3 
     name ltibia
     direction 0.34202 -0.939693 0   
     length 8.1668   
     axis 0 0 20   XYZ
    dof rx
    limits (-10.0 170.0)
  end
  begin
     id 4 
     name lfoot
     direction 0.0736283 -0.202292 0.976554   
     length 2.13544   
     axis -90 7.62852e-016 20   XYZ
    dof rx rz
    limits (-45.0 90.0)
           (-70.0 20.0)
  end
  begin
     id 5 
     name ltoes
     direction 1.53557e-011 -4.22024e-011 1   
     length 1.07411   
     axis -90 7.62852e-016 20   XYZ
    dof rx
    limits (-90.0 20.0)
  end
  begin
     id 6 
     name rhipjoint
     direction -0.538061 -0.797813 0.272002   
     length 2.39057  
     axis 0 0 0  XYZ 
  end
  begin
     id 7 
     name rfemur
     direction -0.34202 -0.939693 0   
     length 7.50152   
     axis 0 0 -20   XYZ
    dof rx ry rz
    limits (-160.0 20.0)
           (-70.0 70.0)
           (-70.0 60.0)
  end
  begin
     id 8 
     name rtibia
     direction -0.34202 -0.939693 0   
     length 8.05793   
     axis 0 0 -20   XYZ
    dof rx
    limits (-10.0 170.0)
 end
 begin
     id 9 
     name rfoot
     direction -0.0765195 -0.210236 0.974652   
     length 2.28698  
     axis -90 -7.62852e-016 -20   XYZ
    dof rx rz
    limits (-45.0 90.0)
           (-20.0 70.0)
  end
  begin
     id 10 
     name rtoes
     direction -1.53542e-011 -4.21847e-011 1   
     length 1.14762   
     axis -90 -7.62852e-016 -20   XYZ
    dof rx
    limits (-90.0 20.0)
  end
  begin
     id 11 
     name lowerback
     direction -0.0217239 0.996592 -0.0795765   
     length 2.08176   
     axis 0 0 0   XYZ
    dof rx ry rz
    limits (-20.0 45.0)
           (-30.0 30.0)
           (-30.0 30.0)
  end
  begin
     id 12 
     name upperback
     direction -0.00563773 0.999651 -0.0258155   
     length 2.08898   
     axis 0 0 0   XYZ
    dof rx ry rz
    limits (-20.0 45.0)
           (-30.0 30.0)
           (-30.0 30.0)
  end
  begin
     id 13 
     name thorax
     direction 0.0032706 0.999923 0.0119599   
     length 2.0968   
     axis 0 0 0   XYZ
    dof rx ry rz
    limits (-20.0 45.0)
           (-30.0 30.0)
           (-30.0 30.0)
  end
  begin
     id 14 
     name lowerneck
     direction -0.0285886 0.99568 0.0883427   
     length 1.81272   
     axis 0 0 0   XYZ
    dof rx ry rz
    limits (-20.0 45.0)
           (-30.0 30.0)
           (-30.0 30.0)
  end
  begin
     id 15 
     name upperneck
     direction 0.0807535 0.97985 -0.18268   
     length 1.82518   
     axis 0 0 0   XYZ
    dof rx ry rz
    limits (-20.0 45.0)
           (-30.0 30.0)
           (-30.0 30.0)
  end
  begin
     id 16
     name head
     direction 0.0236605 0.997053 -0.0729767  
     length 1.84443  
     axis 0 0 0   XYZ
    dof rx ry rz
    limits (-20.0 45.0)
           (-30.0 30.0)
           (-30.0 30.0)
  end
  begin
     id 17 
     name lclavicle
     direction 0.918986 0.39378 -0.0200683  
     length 3.27822  
     axis 0 0 0   XYZ
    dof ry rz
    limits (-20.0 10.0)
           (0.0 20.0)
  end
  begin
     id 18 
     name lhumerus
     direction 1 -4.4897e-011 2.09544e-027   
     length 5.5568   
     axis 180 -30 -90   XYZ
    dof rx ry rz
    limits (-60.0 90.0)
           (-90.0 90.0)
           (-90.0 90.0)
  end
  begin
     id 19
     name lradius
     direction 1 -4.48957e-011 -1.27696e-026   
     length 3.63979   
     axis 180 -30 -90   XYZ
    dof rx
    limits (-10.0 170.0)
  end
  begin
     id 20
     name lwrist
     direction 1 -4.49001e-011 -1.49001e-026   
     length 1.8199   
     axis 9.0955e-015 90 90   XYZ
    dof ry
    limits (-180.0 0.0)
 end
  begin
     id 21 
     name lhand
     direction 1 -4.48709e-011 -2.9758e-026   
     length 0.569419   
     axis 1.90115e-014 90 90   XYZ
    dof rx rz
    limits (-90.0 90.0)
           (-45.0 45.0)
  end
  begin
     id 22 
     name lfingers
     direction 1 -4.49175e-011 -5.96505e-026   
     length 0.45908   
     axis 3.80223e-014 90 90   XYZ
    dof rx
    limits (0.0 90.0)
  end
  begin
     id 23
     name lthumb
     direction 0.707107 -6.34864e-011 0.707107   
     length 0.65915   
     axis -90 45 -3.84942e-014   XYZ
    dof rx rz
    limits (-45.0 45.0)
           (-45.0 45.0)
  end
  begin
     id 24 
     name rclavicle
     direction -0.911913 0.396426 -0.106115   
     length 3.46301  
     axis 0 0 0   XYZ 
    dof ry rz
    limits (-10.0 20.0)
           (-20.0 0.0)
  end
  begin
     id 25 
     name rhumerus
     direction -1 -4.48965e-011 7.78516e-028  
     length 5.34339   
     axis 180 30 90   XYZ
    dof rx ry rz
    limits (-90.0 60.0)
           (-90.0 90.0)
           (-90.0 90.0)
  end
  begin
     id 26 
     name rradius
     direction -1 -4.48948e-011 -5.79823e-027   
     length 3.65101   
     axis 180 30 90   XYZ
    dof rx
    limits (-10.0 170.0)
  end
  begin
     id 27 
     name rwrist
     direction -1 -4.48995e-011 -1.48996e-026   
     length 1.8255   
     axis 9.0955e-015 -90 -90   XYZ
    dof ry
    limits (-180.0 0.0)
  end
  begin
     id 28
     name rhand
     direction -1 -4.48957e-011 -2.97937e-026   
     length 0.694249   
     axis 1.90115e-014 -90 -90   XYZ
    dof rx rz
    limits (-90.0 90.0)
           (-45.0 45.0)
  end
  begin
     id 29
     name rfingers
     direction -1 -4.4898e-011 -5.95943e-026   
     length 0.559721   
     axis 3.80223e-014 -90 -90   XYZ
    dof rx
    limits (0.0 90.0)
  end
  begin
     id 30
     name rthumb
     direction -0.707107 -6.34969e-011 0.707107   
     length 0.803651   
     axis -90 -45 3.84942e-014   XYZ
    dof rx rz
    limits (-45.0 45.0)
           (-45.0 45.0)
  end
:hierarchy
  begin
    root lhipjoint rhipjoint lowerback
    lhipjoint lfemur
    lfemur ltibia
    ltibia lfoot
    lfoot ltoes
    rhipjoint rfemur
    rfemur rtibia
    rtibia rfoot
    rfoot rtoes
    lowerback upperback
    upperback thorax
    thorax lowerneck lclavicle rclavicle
    lowerneck upperneck
    upperneck head
    lclavicle lhumerus
    lhumerus lradius
    lradius lwrist
    lwrist lhand lthumb
    lhand lfingers
    rclavicle rhumerus
    rhumerus rradius
    rradius rwrist
    rwrist rhand rthumb
    rhand rfingers
  end

#!OML:ASF H:\Terrain\Walking\May29\JustinRory\rory.ASF
:FULLY-SPECIFIED
:DEGREES
206
root 12.6634 18.2737 -10.3434 -7.31408 -34.9175 3.76288
lowerback 1.18537 1.33351 -0.0288936
upperback 0.797814 1.77467 1.31168
thorax 0.109986 0.883347 1.33917
lowerneck -9.51129 -0.0803038 2.19666
upperneck 21.9861 -0.226799 -1.89366
head 8.38115 -0.16466 -1.03432
rclavicle 2.13197e-014 2.14687e-014
rhumerus -1.33328 27.4002 -95.0789
rradius 38.6636
rwrist -16.536
rhand -24.7463 30.9001
rfingers 7.12502
rthumb 1.75663 0.927563
lclavicle 2.13197e-014 2.14687e-014
lhumerus -34.9365 23.6542 78.4484
lradius 41.5424
lwrist 163.852
lhand -27.6587 -16.5011
lfingers 7.12502
lthumb -1.05633 13.476
rfemur -10.5794 11.5299 17.5371
rtibia 23.1025
rfoot -6.48231 0.20984
rtoes 16.7307
lfemur -11.7335 7.47398 -15.2284
ltibia 52.2295
lfoot -2.40195 -12.3728
ltoes -15.6578
207
root 12.6879 18.2672 -10.3902 -7.41562 -34.9748 3.7986
lowerback 0.95384 1.41728 -0.0971334
upperback 0.714287 1.88589 1.2272
thorax 0.152166 0.939298 1.29452
lowerneck -9.24538 -0.176374 2.23757
upperneck 22.2026 -0.396144 -1.76524
head 8.40202 -0.229278 -1.0159
rclavicle 1.64494e-014 -6.36111e-015
rhumerus -1.45886 27.6278 -94.9153
rradius 38.0112
rwrist -16.6949
rhand -19.2864 29.7667
rfingers 7.12502
rthumb 7.02871 -0.0965655
lclavicle 1.64494e-014 -6.36111e-015
lhumerus -35.2007 23.9901 78.0694
lradius 41.3316
lwrist 163.389
lhand -27.4997 -16.5908
lfingers 7.12502
lthumb -0.902671 13.3871
rfemur -10.6551 11.7041 17.5062
rtibia 22.9627
rfoot -6.36054 0.187645
rtoes 15.2155
lfemur -11.0344 7.08918 -15.3319
ltibia 52.5256
lfoot -1.31443 -14.0676
ltoes -16.7362
208
root 12.7208 18.2655 -10.4375 -7.52759 -34.8622 3.97298
lowerback 0.778115 1.49347 -0.185812
upperback 0.606814 1.98805 1.0107
thorax 0.142854 0.991218 1.12486
lowerneck -9.20152 -0.301464 2.33809
upperneck 22.5433 -0.656467 -1.48524
head 8.5053 -0.316416 -0.967595
rclavicle 6.65929e-015 1.82882e-014
rhumerus -1.55892 27.6422 -94.8563
rradius 37.3297
rwrist -16.571
rhand -27.2695 32.7681
rfingers 7.12502
rthumb -0.680397 2.78949
lclavicle 6.65929e-015 1.82882e-014
lhumerus -35.402 24.5163 77.6832
lradius 40.982
lwrist 162.792
lhand -26.2253 -15.7091
lfingers 7.12502
lthumb 0.328147 14.2703
rfemur -10.7986 11.6959 17.2849
rtibia 22.8334
rfoot -6.26768 0.298058
rtoes 14.4463
lfemur -10.4172 6.30259 -15.6934
ltibia 52.7209
lfoot 0.0372745 -15.428
ltoes -16.0158
209
root 12.7599 18.2652 -10.4831 -7.5044 -34.7449 3.89009
lowerback 0.73055 1.6047 0.109859
upperback 0.520088 2.13893 0.778813
thorax 0.0972205 1.06823 0.721253
lowerneck -9.42816 -0.516178 2.40508
upperneck 23.0465 -1.04679 -1.20217
head 8.71306 -0.465391 -0.928675
rclavicle 1.25731e-014 -1.11319e-014
rhumerus -1.78981 27.3407 -94.7816
rradius 37.1092
rwrist -15.7269
rhand -28.4878 34.7791
rfingers 7.12502
rthumb -1.85703 4.80744
lclavicle 1.25731e-014 -1.11319e-014
lhumerus -35.3597 24.378 77.566
lradius 40.7116
lwrist 162.325
lhand -25.1916 -15.8471
lfingers 7.12502
lthumb 1.32648 14.1285
rfemur -10.9304 11.4095 17.2653
rtibia 22.7458
rfoot -6.08764 0.64516
rtoes 13.3777
lfemur -9.74951 5.40651 -15.8797
ltibia 52.7953
lfoot 1.46484 -16.7265
ltoes -15.5098
210
root 12.798 18.2552 -10.5374 -7.21368 -34.7479 3.46148
lowerback 0.720103 1.69214 0.586929
upperback 0.377176 2.25938 0.689708
thorax -0.0225237 1.12945 0.360479
lowerneck -9.53041 -0.69073 2.40395
upperneck 23.3995 -1.3404 -1.03243
head 8.84938 -0.585334 -0.905183
rclavicle -2.75814e-014 3.97569e-015
rhumerus -2.33961 27.1321 -94.8239
rradius 37.3352
rwrist -14.6666
rhand -29.5257 35.9092
rfingers 7.12502
rthumb -2.85941 5.94862
lclavicle -2.75814e-014 3.97569e-015
lhumerus -35.3707 23.8671 77.5086
lradius 40.5765
lwrist 162.212
lhand -24.4242 -16.4836
lfingers 7.12502
lthumb 2.06764 13.4861
rfemur -11.1906 11.6044 17.5606
rtibia 22.6264
rfoot -5.72617 0.651901
rtoes 14.2656
lfemur -9.15732 4.80331 -15.6525
ltibia 52.7162
lfoot 3.10726 -18.0429
ltoes -13.1072
211
root 12.8352 18.2468 -10.5918 -7.06815 -34.687 3.2826
lowerback 0.618824 1.6443 0.558136
upperback 0.271034 2.19538 0.796197
thorax -0.0795261 1.09721 0.486973
lowerneck -9.55817 -0.719117 1.99654
upperneck 23.6099 -1.37384 -0.755138
head 8.93185 -0.607489 -0.747771
rclavicle 9.37767e-014 -7.95139e-015
rhumerus -3.09153 27.9199 -94.6501
rradius 37.9604
rwrist -14.6046
rhand -30.8768 36.945
rfingers 7.12502
rthumb -4.16416 7.00598
lclavicle 9.37767e-014 -7.95139e-015
lhumerus -35.5428 24.0922 77.3161
lradius 40.2567
lwrist 162.745
lhand -22.5554 -15.636
lfingers 7.12502
lthumb 3.87241 14.3085
rfemur -11.3999 11.9331 17.6168
rtibia 22.4461
rfoot -5.25968 0.569089
rtoes 16.8906
lfemur -8.50192 4.14235 -15.7143
ltibia 52.4585
lfoot 4.58275 -19.2961
ltoes -10.2773
212
root 12.8754 18.2507 -10.6345 -7.25284 -34.512 3.51088
lowerback 0.371856 1.52669 0.155088
upperback 0.308605 2.03455 0.88179
thorax 0.0808105 1.01635 0.808786
lowerneck -9.53501 -0.732539 1.45475
upperneck 23.634 -1.36781 -0.428078
head 8.94243 -0.618525 -0.544298
rclavicle -8.58253e-014 -7.15625e-015
rhumerus -3.95076 29.1158 -94.3491
rradius 39.1934
rwrist -15.1684
rhand -32.3436 38.0405
rfingers 7.12502
rthumb -5.58044 8.13399
lclavicle -8.58253e-014 -7.15625e-015
lhumerus -35.8968 24.9196 76.9274
lradius 40.222
lwrist 163.134
lhand -21.6897 -15.0789
lfingers 7.12502
lthumb 4.70837 14.8488
rfemur -11.3849 11.73 17.2945
rtibia 22.2231
rfoot -4.80987 0.898742
rtoes 17.0956
lfemur -7.58171 3.03776 -16.3746
ltibia 51.9783
lfoot 5.10254 -20.3047
ltoes -10.6904
213
root 12.9171 18.2534 -10.6804 -7.24853 -34.4078 3.56004
lowerback 0.195337 1.57965 0.0366913
upperback 0.226203 2.10483 0.82657
thorax 0.0922714 1.05159 0.822147
lowerneck -9.26398 -0.901448 1.15117
upperneck 23.5018 -1.64133 -0.0117491
head 8.85024 -0.732209 -0.377063
rclavicle -5.46658e-015 1.03368e-014
rhumerus -5.07358 29.1617 -94.3619
rradius 40.714
rwrist -14.8078
rhand -33.115 38.8504
rfingers 7.12502
rthumb -6.32527 8.96487
lclavicle -5.46658e-015 1.03368e-014
lhumerus -36.3977 25.516 76.4956
lradius 40.5367
lwrist 162.785
lhand -23.5552 -15.971
lfingers 7.12502
lthumb 2.90695 13.9889
rfemur -11.4901 11.659 17.1334
rtibia 22.0013
rfoot -4.40776 1.10001
rtoes 16.2117
lfemur -6.75028 1.92711 -16.877
ltibia 51.3389
lfoot 5.66879 -20.8522
ltoes -9.52852
214
root 12.9573 18.2518 -10.7364 -7.09714 -34.4779 3.34247
lowerback 0.296711 1.77484 0.193769
upperback 0.0395267 2.36742 0.730578
thorax -0.148751 1.18353 0.62843
lowerneck -9.09748 -1.10333 0.95842
upperneck 23.4947 -2.01494 0.526549
head 8.82341 -0.870357 -0.199048
rclavicle 6.11263e-015 -7.15625e-015
rhumerus -6.27754 28.5665 -94.5186
rradius 42.2404
rwrist -13.9139
rhand -33.723 39.9117
rfingers 7.12502
rthumb -6.9122 10.0445
lclavicle 6.11263e-015 -7.15625e-015
lhumerus -36.6656 25.4842 76.2288
lradius 40.6251
lwrist 162.918
lhand -25.8304 -17.8603
lfingers 7.12502
lthumb 0.709544 12.1183
rfemur -11.697 11.8218 17.2711
rtibia 21.8669
rfoot -4.04712 1.17338
rtoes 16.251
lfemur -5.92828 1.16828 -16.9945
ltibia 50.5579
lfoot 7.18661 -21.1162
ltoes -4.79552
215
root 13.0007 18.2407 -10.8005 -6.95535 -34.5586 3.11002
lowerback 0.509964 1.84188 0.277301
upperback -0.088518 2.45957 0.714274
thorax -0.395836 1.22961 0.554281
lowerneck -9.15269 -1.1801 0.85135
upperneck 23.4617 -2.15318 0.742632
head 8.82614 -0.922282 -0.122181
rclavicle 5.66536e-015 -5.56597e-015
rhumerus -7.36754 28.4258 -94.6522
rradius 44.0798
rwrist -13.3466
rhand -34.6748 40.6698
rfingers 7.12502
rthumb -7.83088 10.8348
lclavicle 5.66536e-015 -5.56597e-015
lhumerus -36.7187 25.3593 76.0513
lradius 40.5135
lwrist 163.134
lhand -26.7606 -19.5219
lfingers 7.12502
lthumb -0.188862 10.4577
rfemur -12.0925 11.9514 17.4379
rtibia 22.0102
rfoot -3.75476 1.3118
rtoes 17.0815
lfemur -5.04607 0.564627 -17.0432
ltibia 49.5768
lfoot 8.96447 -21.1967
ltoes -0.893702
216
root 13.0462 18.2242 -10.8696 -6.7152 -34.3201 3.25837
lowerback 0.260392 1.7421 -0.0640728
upperback -0.119437 2.32375 0.638118
thorax -0.297036 1.16243 0.676093
lowerneck -9.23588 -1.25647 0.759035
upperneck 23.0969 -2.22919 0.736408
head 8.71714 -0.967451 -0.115093
rclavicle -1.45113e-013 -1.55052e-014
rhumerus -8.22717 28.488 -94.7176
rradius 46.4089
rwrist -13.3074
rhand -35.7069 40.9937
rfingers 7.12502
rthumb -8.82702 11.1983
lclavicle -1.45113e-013 -1.55052e-014
lhumerus -36.5617 25.6212 75.9062
lradius 40.4021
lwrist 162.839
lhand -25.0923 -18.0734
lfingers 7.12502
lthumb 1.42242 11.9016
rfemur -12.8923 11.9861 17.1467
rtibia 22.233
rfoot -3.50729 1.22657
rtoes 16.6027
lfemur -4.54625 -0.346438 -17.5091
ltibia 48.4273
lfoot 10.1407 -21
ltoes 1.45856
217
root 13.078 18.2157 -10.9341 -7.08572 -33.8593 4.86125
lowerback -0.457757 1.64392 -1.82212
upperback -0.0916438 2.20004 0.235512
thorax 0.0847568 1.09988 1.27124
lowerneck -9.44958 -1.37431 0.650611
upperneck 22.8058 -2.38155 0.810124
head 8.65956 -1.04027 -0.0876363
rclavicle -9.0447e-015 3.57812e-015
rhumerus -9.01156 28.2583 -94.8498
rradius 48.7188
rwrist -14.1023
rhand -36.7629 43.5011
rfingers 7.12502
rthumb -9.84595 13.7513
lclavicle -9.0447e-015 3.57812e-015
lhumerus -36.5108 26.4554 75.4208
lradius 40.4409
lwrist 163.893
lhand -20.1516 -13.3634
lfingers 7.12502
lthumb 6.19349 16.526
rfemur -13.9767 11.8685 15.4409
rtibia 22.657
rfoot -3.48624 1.04547
rtoes 14.7234
lfemur -4.14569 -1.47352 -19.42
ltibia 46.9427
lfoot 10.8245 -20.6747
ltoes 5.10267
218
root 13.1326 18.2068 -10.9843 -7.03876 -33.6917 4.68679
lowerback -0.40731 1.67633 -1.66716
upperback -0.033715 2.24224 0.124971
thorax 0.124679 1.12024 1.07126
lowerneck -9.7957 -1.53171 0.713238
upperneck 22.8066 -2.63814 0.909551
head 8.72546 -1.14262 -0.0942754
rclavicle -1.95803e-014 -2.38542e-015
rhumerus -9.94931 27.4303 -95.0838
rradius 50.9636
rwrist -15.3412
rhand -36.2327 45.7217
rfingers 7.12502
rthumb -9.33436 15.9484
lclavicle -1.95803e-014 -2.38542e-015
lhumerus -36.6787 27.4223 74.4621
lradius 40.5483
lwrist 167.433
lhand -28.3587 -21.353
lfingers 7.12502
lthumb -1.73232 8.61973
rfemur -14.3997 11.4913 15.4937
rtibia 23.1307
rfoot -3.59069 1.23254
rtoes 13.6354
lfemur -2.99552 -2.28181 -19.6495
ltibia 45.2184
lfoot 11.7456 -20.5442
ltoes 9.72321
219
root 13.1828 18.1985 -11.0457 -6.97318 -33.366 5.02324
lowerback -0.510573 1.68277 -2.17434
upperback -0.0878894 2.25499 -0.0631564
thorax 0.114671 1.12671 1.16452
lowerneck -10.0249 -1.68367 0.785882
upperneck 22.6241 -2.89224 1.05256
head 8.70769 -1.24022 -0.0858399
rclavicle -1.86361e-014 9.93923e-015
rhumerus -10.8559 26.5312 -95.2
rradius 53.3936
rwrist -16.5331
rhand -32.9288 42.5947
rfingers 7.12502
rthumb -6.1455 12.7039
lclavicle -1.86361e-014 9.93923e-015
lhumerus -36.4107 26.2488 75.0264
lradius 39.9435
lwrist 166.051
lhand -26.0294 -18.3992
lfingers 7.12502
lthumb 0.517391 11.5799
rfemur -15.19 11.0288 14.9873
rtibia 23.6552
rfoot -3.62838 1.51516
rtoes 13.0562
lfemur -2.10452 -3.20732 -20.3418
ltibia 43.1376
lfoot 12.8333 -19.9708
ltoes 12.8296
220
root 13.2326 18.1888 -11.1064 -7.12193 -33.1851 5.7647
lowerback -0.647852 1.61443 -3.04898
upperback -0.119618 2.17251 -0.214638
thorax 0.135398 1.08491 1.50154
lowerneck -9.98895 -1.65459 0.481035
upperneck 22.182 -2.84494 1.35659
head 8.55943 -1.21523 0.0754589
rclavicle -3.88376e-014 2.8625e-014
rhumerus -11.6833 26.0241 -95.2934
rradius 55.876
rwrist -17.5723
rhand -31.9411 39.6632
rfingers 7.12502
rthumb -5.19184 9.74682
lclavicle -3.88376e-014 2.8625e-014
lhumerus -36.559 26.3242 75.0398
lradius 40.0978
lwrist 166.019
lhand -24.9715 -17.572
lfingers 7.12502
lthumb 1.53906 12.4022
rfemur -16.0407 10.779 14.1344
rtibia 24.1441
rfoot -3.53408 1.80129
rtoes 13.0652
lfemur -1.16531 -4.15355 -21.4219
ltibia 40.912
lfoot 13.1963 -19.5206
ltoes 14.8212
